<?xml version="1.0" encoding="utf-8"?>
<svg viewBox="0 0 500 500" xmlns="http://www.w3.org/2000/svg">
  <path fill="#4285F4" d="M 500 255.575 C 500 235.025 498.291 220 494.592 204.475 L 255.089 204.475 L 255.089 297.2 L 395.694 297.2 C 392.837 320.3 377.532 355 343.503 378.35 L 343.044 381.425 L 418.78 438.95 L 424.035 439.475 C 472.196 395.825 500 331.7 500 255.575"/>
  <path fill="#34A853" d="M 255.089 500 C 323.963 500 381.792 477.775 424.06 439.45 L 343.529 378.35 C 321.999 393.075 293.072 403.35 255.115 403.35 C 187.644 403.35 130.402 359.725 109.994 299.475 L 107.01 299.75 L 28.264 359.45 L 27.192 362.25 C 69.155 443.9 155.324 500 255.089 500"/>
  <path fill="#FBBC05" d="M 109.969 299.475 C 104.586 283.9 101.474 267.225 101.474 250 C 101.474 232.775 104.586 216.125 109.688 200.55 L 109.535 197.25 L 29.82 136.575 L 27.192 137.8 C 9.923 171.675 0 209.725 0 250 C 0 290.275 9.923 328.35 27.192 362.25 L 109.969 299.475"/>
  <path fill="#EB4335" d="M 255.089 96.675 C 302.995 96.675 335.289 116.95 353.732 133.9 L 425.693 65 C 381.486 24.725 323.938 0 255.089 0 C 155.324 0 69.155 56.125 27.192 137.8 L 109.688 200.55 C 130.376 140.275 187.618 96.675 255.089 96.675"/>
</svg>